<?xml version="1.0" standalone="no"?>
<!DOCTYPE svg PUBLIC "-//W3C//DTD SVG 20010904//EN"
 "http://www.w3.org/TR/2001/REC-SVG-20010904/DTD/svg10.dtd">
<svg version="1.0" xmlns="http://www.w3.org/2000/svg"
 width="332.000000pt" height="332.000000pt" viewBox="0 0 332.000000 332.000000"
 preserveAspectRatio="xMidYMid meet">
<metadata>
Created by potrace 1.11, written by Peter Selinger 2001-2013
</metadata>
<g transform="translate(0.000000,332.000000) scale(0.100000,-0.100000)"
fill="#000000" stroke="none">
<path d="M264 2656 c-47 -21 -74 -62 -74 -112 0 -64 34 -99 123 -125 92 -27
117 -43 117 -74 0 -31 -35 -55 -80 -55 -42 0 -78 22 -91 57 -8 23 -13 24 -47
18 -20 -4 -39 -9 -41 -11 -3 -2 5 -25 17 -50 31 -62 88 -89 180 -81 73 6 108
25 135 78 45 85 -5 160 -134 198 -83 26 -99 35 -99 62 0 41 95 54 130 19 11
-11 20 -24 20 -30 0 -5 18 -10 40 -10 36 0 40 3 40 24 0 79 -141 133 -236 92z"/>
<path d="M638 2624 c-30 -19 -38 -31 -38 -54 0 -23 -4 -30 -20 -30 -16 0 -20
-7 -20 -30 0 -23 4 -30 20 -30 19 0 20 -7 20 -106 0 -58 5 -114 10 -124 12
-22 67 -35 105 -26 37 9 35 53 -2 58 l-28 3 -3 98 -3 97 31 0 c27 0 30 3 30
30 0 27 -3 30 -30 30 -28 0 -29 2 -32 54 l-3 53 -37 -23z"/>
<path d="M1393 2619 c-25 -16 -33 -28 -33 -51 l0 -30 -56 7 c-50 6 -59 4 -80
-16 -20 -19 -24 -20 -24 -6 0 13 -9 17 -40 17 l-40 0 0 -155 0 -155 40 0 40 0
1 83 c0 45 6 98 12 117 11 32 16 35 49 34 32 -1 37 2 46 30 8 26 10 27 11 9 1
-16 7 -23 20 -23 18 0 20 -10 23 -111 3 -102 5 -112 27 -130 22 -18 74 -25
103 -14 9 4 13 16 10 34 -3 23 -8 28 -24 23 -30 -8 -38 14 -38 111 l0 87 30 0
c27 0 30 3 30 30 0 27 -3 30 -30 30 -29 0 -30 1 -30 50 0 28 -3 50 -7 50 -5 0
-23 -10 -40 -21z"/>
<path d="M844 2541 c-21 -9 -64 -57 -64 -71 0 -4 14 -10 32 -14 24 -5 37 -1
53 14 35 33 101 22 93 -16 -2 -13 -22 -22 -73 -35 -82 -21 -115 -51 -115 -104
0 -77 91 -120 165 -76 30 17 37 18 41 6 4 -10 20 -15 44 -15 l39 0 -10 32 c-5
18 -9 78 -9 134 0 95 -1 102 -25 124 -20 19 -39 25 -88 27 -34 2 -72 -1 -83
-6z m116 -196 c0 -26 -6 -39 -25 -51 -31 -20 -71 -12 -80 17 -9 28 10 47 58
58 23 5 43 9 45 10 1 1 2 -15 2 -34z"/>
<path d="M2184 1108 c40 -62 100 -155 134 -206 l61 -93 -106 -162 c-58 -89
-123 -188 -144 -219 -22 -31 -39 -59 -39 -62 0 -4 44 -6 98 -6 l99 0 94 145
c52 80 96 145 99 145 3 0 47 -66 98 -145 l94 -145 99 0 c54 0 99 2 99 4 0 3
-65 104 -145 225 l-146 221 39 57 c22 32 82 124 135 206 l96 147 -98 0 -98 0
-83 -125 c-46 -69 -86 -125 -90 -125 -4 0 -44 56 -90 125 l-83 125 -98 0 -98
0 73 -112z"/>
</g>
</svg>
